<?xml version="1.0" encoding="UTF-8" standalone="no"?>
<!-- Created with Inkscape (http://www.inkscape.org/) -->

<svg
   version="1.1"
   id="svg1"
   width="3468"
   height="3082.6667"
   viewBox="0 0 3468 3082.6667"
   sodipodi:docname="iStock-1221230316.eps"
   xmlns:inkscape="http://www.inkscape.org/namespaces/inkscape"
   xmlns:sodipodi="http://sodipodi.sourceforge.net/DTD/sodipodi-0.dtd"
   xmlns="http://www.w3.org/2000/svg"
   xmlns:svg="http://www.w3.org/2000/svg">
  <defs
     id="defs1">
    <linearGradient
       x1="0"
       y1="0"
       x2="1"
       y2="0"
       gradientUnits="userSpaceOnUse"
       gradientTransform="matrix(-15201.4,-12658.2,-12658.2,15201.4,20726.2,17990)"
       spreadMethod="pad"
       id="linearGradient3">
      <stop
         style="stop-opacity:1;stop-color:#f2eca6"
         offset="0"
         id="stop2" />
      <stop
         style="stop-opacity:1;stop-color:#d49737"
         offset="1"
         id="stop3" />
    </linearGradient>
    <clipPath
       clipPathUnits="userSpaceOnUse"
       id="clipPath3">
      <path
         d="m 15110.2,11560.1 v 1957.2 H 10899.8 V 9603.9 h 2129.1 2081.3 z"
         transform="translate(0,2.5000001e-4)"
         id="path3" />
    </clipPath>
    <linearGradient
       x1="0"
       y1="0"
       x2="1"
       y2="0"
       gradientUnits="userSpaceOnUse"
       gradientTransform="matrix(-15201.4,-12658.2,-12658.2,15201.4,19784.6,19120.8)"
       spreadMethod="pad"
       id="linearGradient5">
      <stop
         style="stop-opacity:1;stop-color:#f2eca6"
         offset="0"
         id="stop4" />
      <stop
         style="stop-opacity:1;stop-color:#d49737"
         offset="1"
         id="stop5" />
    </linearGradient>
    <clipPath
       clipPathUnits="userSpaceOnUse"
       id="clipPath5">
      <path
         d="m 19118.8,18008 h -5887.6 v -4086.1 h 2007.9 l 1863.7,1557.4 c 36.3,30.4 82.3,47 129.7,47 h 3452.3 v 1004.4 c 0,814.6 -702.5,1477.3 -1566,1477.3 z"
         transform="translate(0,2.5000001e-4)"
         id="path5" />
    </clipPath>
    <linearGradient
       x1="0"
       y1="0"
       x2="1"
       y2="0"
       gradientUnits="userSpaceOnUse"
       gradientTransform="matrix(-15201.4,-12658.2,-12658.2,15201.4,17151.1,22283.3)"
       spreadMethod="pad"
       id="linearGradient7">
      <stop
         style="stop-opacity:1;stop-color:#f2eca6"
         offset="0"
         id="stop6" />
      <stop
         style="stop-opacity:1;stop-color:#d49737"
         offset="1"
         id="stop7" />
    </linearGradient>
    <clipPath
       clipPathUnits="userSpaceOnUse"
       id="clipPath7">
      <path
         d="m 8954.99,15477.7 1817.31,-1555.8 h 2054.3 V 18008 H 6891.24 c -863.56,0 -1566.07,-662.7 -1566.07,-1477.3 v -1004.4 h 3498.25 c 48.26,0 94.88,-17.2 131.57,-48.6 z"
         transform="translate(0,2.5000001e-4)"
         id="path7" />
    </clipPath>
    <linearGradient
       x1="0"
       y1="0"
       x2="1"
       y2="0"
       gradientUnits="userSpaceOnUse"
       gradientTransform="matrix(-15201.4,-12658.2,-12658.2,15201.4,22253.8,16155.4)"
       spreadMethod="pad"
       id="linearGradient9">
      <stop
         style="stop-opacity:1;stop-color:#f2eca6"
         offset="0"
         id="stop8" />
      <stop
         style="stop-opacity:1;stop-color:#d49737"
         offset="1"
         id="stop9" />
    </linearGradient>
    <clipPath
       clipPathUnits="userSpaceOnUse"
       id="clipPath9">
      <path
         d="m 15514.8,13625 v -1862.6 h 5170 v 3359.3 h -3379 z"
         transform="translate(0,2.5000001e-4)"
         id="path9" />
    </clipPath>
    <linearGradient
       x1="0"
       y1="0"
       x2="1"
       y2="0"
       gradientUnits="userSpaceOnUse"
       gradientTransform="matrix(-15201.4,-12658.2,-12658.2,15201.4,24311.2,13684.7)"
       spreadMethod="pad"
       id="linearGradient11">
      <stop
         style="stop-opacity:1;stop-color:#f2eca6"
         offset="0"
         id="stop10" />
      <stop
         style="stop-opacity:1;stop-color:#d49737"
         offset="1"
         id="stop11" />
    </linearGradient>
    <clipPath
       clipPathUnits="userSpaceOnUse"
       id="clipPath11">
      <path
         d="M 17102.8,7642.1 15239.1,9199.3 H 13231.2 V 5112.1 h 5887.6 c 863.5,0 1566,663.1 1566,1478.2 V 7595 h -3452.3 c -47.4,0 -93.3,16.7 -129.7,47.1 z"
         transform="translate(0,2.5000001e-4)"
         id="path11" />
    </clipPath>
    <linearGradient
       x1="0"
       y1="0"
       x2="1"
       y2="0"
       gradientUnits="userSpaceOnUse"
       gradientTransform="matrix(-15201.4,-12658.2,-12658.2,15201.4,19207.8,19813.4)"
       spreadMethod="pad"
       id="linearGradient13">
      <stop
         style="stop-opacity:1;stop-color:#f2eca6"
         offset="0"
         id="stop12" />
      <stop
         style="stop-opacity:1;stop-color:#d49737"
         offset="1"
         id="stop13" />
    </linearGradient>
    <clipPath
       clipPathUnits="userSpaceOnUse"
       id="clipPath13">
      <path
         d="m 10495.2,9494.7 v 1863.1 H 5325.17 V 7999.6 h 3423.52 z"
         transform="translate(0,2.5000001e-4)"
         id="path13" />
    </clipPath>
    <linearGradient
       x1="0"
       y1="0"
       x2="1"
       y2="0"
       gradientUnits="userSpaceOnUse"
       gradientTransform="matrix(-15201.4,-12658.2,-12658.2,15201.4,17714.8,21606.4)"
       spreadMethod="pad"
       id="linearGradient15">
      <stop
         style="stop-opacity:1;stop-color:#f2eca6"
         offset="0"
         id="stop14" />
      <stop
         style="stop-opacity:1;stop-color:#d49737"
         offset="1"
         id="stop15" />
    </linearGradient>
    <clipPath
       clipPathUnits="userSpaceOnUse"
       id="clipPath15">
      <path
         d="M 10495.2,13626.5 8748.63,15121.7 H 5325.17 v -3359.3 h 5170.03 z"
         transform="translate(0,2.5000001e-4)"
         id="path15" />
    </clipPath>
    <linearGradient
       x1="0"
       y1="0"
       x2="1"
       y2="0"
       gradientUnits="userSpaceOnUse"
       gradientTransform="matrix(-15201.4,-12658.2,-12658.2,15201.4,21677.8,16847.1)"
       spreadMethod="pad"
       id="linearGradient17">
      <stop
         style="stop-opacity:1;stop-color:#f2eca6"
         offset="0"
         id="stop16" />
      <stop
         style="stop-opacity:1;stop-color:#d49737"
         offset="1"
         id="stop17" />
    </linearGradient>
    <clipPath
       clipPathUnits="userSpaceOnUse"
       id="clipPath17">
      <path
         d="M 8954.99,7643.6 C 8918.3,7612.2 8871.68,7595 8823.42,7595 H 5325.17 V 6590.3 c 0,-815.1 702.51,-1478.2 1566.07,-1478.2 h 5935.36 v 4087.2 h -2054.3 z"
         transform="translate(0,2.5000001e-4)"
         id="path17" />
    </clipPath>
    <linearGradient
       x1="0"
       y1="0"
       x2="1"
       y2="0"
       gradientUnits="userSpaceOnUse"
       gradientTransform="matrix(-15201.4,-12658.2,-12658.2,15201.4,23737.7,14373.4)"
       spreadMethod="pad"
       id="linearGradient19">
      <stop
         style="stop-opacity:1;stop-color:#f2eca6"
         offset="0"
         id="stop18" />
      <stop
         style="stop-opacity:1;stop-color:#d49737"
         offset="1"
         id="stop19" />
    </linearGradient>
    <clipPath
       clipPathUnits="userSpaceOnUse"
       id="clipPath19">
      <path
         d="m 15514.8,9496.1 1791,-1496.5 h 3379 v 3358.2 h -5170 z"
         transform="translate(0,2.5000001e-4)"
         id="path19" />
    </clipPath>
  </defs>
  <sodipodi:namedview
     id="namedview1"
     pagecolor="#ffffff"
     bordercolor="#000000"
     borderopacity="0.25"
     inkscape:showpageshadow="2"
     inkscape:pageopacity="0.0"
     inkscape:pagecheckerboard="0"
     inkscape:deskcolor="#d1d1d1">
    <inkscape:page
       x="0"
       y="0"
       inkscape:label="1"
       id="page1"
       width="3468"
       height="3082.6667"
       margin="0"
       bleed="0" />
  </sodipodi:namedview>
  <g
     id="g1"
     inkscape:groupmode="layer"
     inkscape:label="1">
    <g
       id="group-R5">
      <path
         id="path2"
         d="m 15110.2,11560.1 v 1957.2 H 10899.8 V 9603.9 h 2129.1 2081.3 v 1956.2"
         style="fill:url(#linearGradient3);fill-opacity:1;fill-rule:nonzero;stroke:none"
         transform="matrix(0.13333333,0,0,-0.13333333,0,3082.6667)"
         clip-path="url(#clipPath3)" />
      <path
         id="path4"
         d="m 19118.8,18008 h -5887.6 v -4086.1 h 2007.9 l 1863.7,1557.4 c 36.3,30.4 82.3,47 129.7,47 h 3452.3 v 1004.4 c 0,814.6 -702.5,1477.3 -1566,1477.3"
         style="fill:url(#linearGradient5);fill-opacity:1;fill-rule:nonzero;stroke:none"
         transform="matrix(0.13333333,0,0,-0.13333333,0,3082.6667)"
         clip-path="url(#clipPath5)" />
      <path
         id="path6"
         d="m 8954.99,15477.7 1817.31,-1555.8 h 2054.3 V 18008 H 6891.24 c -863.56,0 -1566.07,-662.7 -1566.07,-1477.3 v -1004.4 h 3498.25 c 48.26,0 94.88,-17.2 131.57,-48.6"
         style="fill:url(#linearGradient7);fill-opacity:1;fill-rule:nonzero;stroke:none"
         transform="matrix(0.13333333,0,0,-0.13333333,0,3082.6667)"
         clip-path="url(#clipPath7)" />
      <path
         id="path8"
         d="m 15514.8,13625 v -1862.6 h 5170 v 3359.3 h -3379 l -1791,-1496.7"
         style="fill:url(#linearGradient9);fill-opacity:1;fill-rule:nonzero;stroke:none"
         transform="matrix(0.13333333,0,0,-0.13333333,0,3082.6667)"
         clip-path="url(#clipPath9)" />
      <path
         id="path10"
         d="M 17102.8,7642.1 15239.1,9199.3 H 13231.2 V 5112.1 h 5887.6 c 863.5,0 1566,663.1 1566,1478.2 V 7595 h -3452.3 c -47.4,0 -93.3,16.7 -129.7,47.1"
         style="fill:url(#linearGradient11);fill-opacity:1;fill-rule:nonzero;stroke:none"
         transform="matrix(0.13333333,0,0,-0.13333333,0,3082.6667)"
         clip-path="url(#clipPath11)" />
      <path
         id="path12"
         d="m 10495.2,9494.7 v 1863.1 H 5325.17 V 7999.6 h 3423.52 l 1746.51,1495.1"
         style="fill:url(#linearGradient13);fill-opacity:1;fill-rule:nonzero;stroke:none"
         transform="matrix(0.13333333,0,0,-0.13333333,0,3082.6667)"
         clip-path="url(#clipPath13)" />
      <path
         id="path14"
         d="M 10495.2,13626.5 8748.63,15121.7 H 5325.17 v -3359.3 h 5170.03 v 1864.1"
         style="fill:url(#linearGradient15);fill-opacity:1;fill-rule:nonzero;stroke:none"
         transform="matrix(0.13333333,0,0,-0.13333333,0,3082.6667)"
         clip-path="url(#clipPath15)" />
      <path
         id="path16"
         d="M 8954.99,7643.6 C 8918.3,7612.2 8871.68,7595 8823.42,7595 H 5325.17 V 6590.3 c 0,-815.1 702.51,-1478.2 1566.07,-1478.2 H 12826.6 V 9199.3 H 10772.3 L 8954.99,7643.6"
         style="fill:url(#linearGradient17);fill-opacity:1;fill-rule:nonzero;stroke:none"
         transform="matrix(0.13333333,0,0,-0.13333333,0,3082.6667)"
         clip-path="url(#clipPath17)" />
      <path
         id="path18"
         d="m 15514.8,9496.1 1791,-1496.5 h 3379 v 3358.2 h -5170 V 9496.1"
         style="fill:url(#linearGradient19);fill-opacity:1;fill-rule:nonzero;stroke:none"
         transform="matrix(0.13333333,0,0,-0.13333333,0,3082.6667)"
         clip-path="url(#clipPath19)" />
    </g>
  </g>
</svg>
