<?xml version="1.0" encoding="UTF-8" standalone="no"?>
<!-- Created with Inkscape (http://www.inkscape.org/) -->

<svg
   version="1.1"
   id="svg1"
   width="4000"
   height="2666.6667"
   viewBox="0 0 4000 2666.6667"
   sodipodi:docname="iStock-1151397537.eps"
   xmlns:inkscape="http://www.inkscape.org/namespaces/inkscape"
   xmlns:sodipodi="http://sodipodi.sourceforge.net/DTD/sodipodi-0.dtd"
   xmlns="http://www.w3.org/2000/svg"
   xmlns:svg="http://www.w3.org/2000/svg">
  <defs
     id="defs1" />
  <sodipodi:namedview
     id="namedview1"
     pagecolor="#ffffff"
     bordercolor="#000000"
     borderopacity="0.25"
     inkscape:showpageshadow="2"
     inkscape:pageopacity="0.0"
     inkscape:pagecheckerboard="0"
     inkscape:deskcolor="#d1d1d1">
    <inkscape:page
       x="0"
       y="0"
       inkscape:label="1"
       id="page1"
       width="4000"
       height="2666.6667"
       margin="0"
       bleed="0" />
  </sodipodi:namedview>
  <g
     id="g1"
     inkscape:groupmode="layer"
     inkscape:label="1">
    <g
       id="group-R5">
      <path
         id="path2"
         d="M 20265,4296.4 H 9735 c -1313.63,0 -2378.54,1064.9 -2378.54,2378.5 v 6650.2 c 0,1313.6 1064.91,2378.5 2378.54,2378.5 h 10530 c 1313.6,0 2378.5,-1064.9 2378.5,-2378.5 V 6674.9 c 0,-1313.6 -1064.9,-2378.5 -2378.5,-2378.5"
         style="fill:#d79335;fill-opacity:1;fill-rule:nonzero;stroke:none"
         transform="matrix(0.13333333,0,0,-0.13333333,0,2666.6667)" />
      <path
         id="path3"
         d="m 9735,15547.3 c -1225.33,0 -2222.2,-996.9 -2222.2,-2222.2 V 6674.9 c 0,-1225.3 996.87,-2222.2 2222.2,-2222.2 h 10530 c 1225.3,0 2222.2,996.9 2222.2,2222.2 v 6650.2 c 0,1225.3 -996.9,2222.2 -2222.2,2222.2 z M 20265,4140 H 9735 c -1397.75,0 -2534.9,1137.2 -2534.9,2534.9 v 6650.2 c 0,1397.7 1137.15,2534.9 2534.9,2534.9 h 10530 c 1397.7,0 2534.9,-1137.2 2534.9,-2534.9 V 6674.9 C 22799.9,5277.2 21662.7,4140 20265,4140"
         style="fill:#ffffff;fill-opacity:1;fill-rule:nonzero;stroke:none"
         transform="matrix(0.13333333,0,0,-0.13333333,0,2666.6667)" />
      <path
         id="path4"
         d="M 14577.6,11590 H 7356.45 c -86.34,0 -156.35,70 -156.35,156.3 0,86.4 70.01,156.4 156.35,156.4 h 7221.15 c 146.7,0 266,119.3 266,266.1 v 941.7 c 0,86.4 70,156.4 156.4,156.4 86.3,0 156.4,-70 156.4,-156.4 v -941.7 c 0,-319.2 -259.7,-578.8 -578.8,-578.8"
         style="fill:#ffffff;fill-opacity:1;fill-rule:nonzero;stroke:none"
         transform="matrix(0.13333333,0,0,-0.13333333,0,2666.6667)" />
      <path
         id="path5"
         d="M 22643.5,8097.3 H 7356.45 c -86.34,0 -156.35,70 -156.35,156.4 0,86.3 70.01,156.3 156.35,156.3 H 22643.5 c 86.4,0 156.4,-70 156.4,-156.3 0,-86.4 -70,-156.4 -156.4,-156.4"
         style="fill:#ffffff;fill-opacity:1;fill-rule:nonzero;stroke:none"
         transform="matrix(0.13333333,0,0,-0.13333333,0,2666.6667)" />
      <path
         id="path6"
         d="m 15000,12954.1 c -37.8,0 -75.6,13.7 -105.4,40.9 l -2841.2,2593.1 c -63.7,58.2 -68.3,157.1 -10.1,220.9 58.3,63.8 157.2,68.3 220.9,10.1 l 2735.8,-2496.9 2735.8,2496.9 c 63.7,58.2 162.7,53.7 220.8,-10.1 58.3,-63.8 53.7,-162.7 -10.1,-220.9 L 15105.4,12995 c -29.9,-27.2 -67.6,-40.9 -105.4,-40.9"
         style="fill:#ffffff;fill-opacity:1;fill-rule:nonzero;stroke:none"
         transform="matrix(0.13333333,0,0,-0.13333333,0,2666.6667)" />
      <path
         id="path7"
         d="m 15000,6733.1 c -86.4,0 -156.4,70 -156.4,156.4 v 1364.2 c 0,86.3 70,156.3 156.4,156.3 86.3,0 156.4,-70 156.4,-156.3 V 6889.5 c 0,-86.4 -70.1,-156.4 -156.4,-156.4"
         style="fill:#ffffff;fill-opacity:1;fill-rule:nonzero;stroke:none"
         transform="matrix(0.13333333,0,0,-0.13333333,0,2666.6667)" />
      <path
         id="path8"
         d="m 17841.1,4140 c -37.6,0 -75.4,13.5 -105.3,40.9 L 15000,6677.8 12264.2,4180.9 c -63.7,-58.2 -162.6,-53.7 -220.9,10.1 -58.2,63.7 -53.6,162.7 10.1,220.9 L 14894.6,7005 c 59.7,54.5 151.1,54.5 210.8,0 l 2841.1,-2593.1 c 63.8,-58.2 68.4,-157.2 10.1,-220.9 -30.8,-33.8 -73.1,-51 -115.5,-51"
         style="fill:#ffffff;fill-opacity:1;fill-rule:nonzero;stroke:none"
         transform="matrix(0.13333333,0,0,-0.13333333,0,2666.6667)" />
      <path
         id="path9"
         d="m 13057.2,8097.3 c -86.4,0 -156.4,70 -156.4,156.4 v 3492.6 c 0,86.4 70,156.4 156.4,156.4 86.3,0 156.3,-70 156.3,-156.4 V 8253.7 c 0,-86.4 -70,-156.4 -156.3,-156.4"
         style="fill:#ffffff;fill-opacity:1;fill-rule:nonzero;stroke:none"
         transform="matrix(0.13333333,0,0,-0.13333333,0,2666.6667)" />
      <path
         id="path10"
         d="m 16942.8,8097.3 c -86.3,0 -156.3,70 -156.3,156.4 v 3070.2 c 0,319.1 259.6,578.8 578.8,578.8 h 5278.2 c 86.4,0 156.4,-70 156.4,-156.4 0,-86.3 -70,-156.3 -156.4,-156.3 h -5278.2 c -146.8,0 -266.1,-119.4 -266.1,-266.1 V 8253.7 c 0,-86.4 -70,-156.4 -156.4,-156.4"
         style="fill:#ffffff;fill-opacity:1;fill-rule:nonzero;stroke:none"
         transform="matrix(0.13333333,0,0,-0.13333333,0,2666.6667)" />
    </g>
  </g>
</svg>
